<svg width="87" height="79" viewBox="0 0 87 79" fill="none" xmlns="http://www.w3.org/2000/svg">
<g clip-path="url(#clip0)">
<rect width="87" height="79" rx="39.5" fill="white"/>
<path d="M0 39.5V79H43.5H87V39.5V-1.17719e-06H43.5H0V39.5ZM48.7359 2.40435C57.4623 3.14415 65.7657 7.05452 72.0857 13.3957C82.055 23.3301 85.5191 38.0732 81.0501 51.4161C76.2109 65.8686 63.3593 75.9087 48.1012 77.1505C40.2474 77.7846 32.3143 75.8294 25.1216 71.4699C23.6936 70.598 23.4027 70.5187 22.8474 70.7829C21.8426 71.2321 21.6839 71.1528 21.6839 70.096C21.6839 69.2241 21.4723 68.9334 19.2511 66.8726C7.0076 55.4321 4.01945 37.1221 11.9526 22.194C17.6909 11.3348 29.2468 3.56689 41.2523 2.43077C44.8222 2.08729 45.166 2.08729 48.7359 2.40435Z" fill="black"/>
<path d="M39.7978 3.98963C35.2495 4.78227 33.9537 5.15217 30.3045 6.7903C27.2106 8.16421 24.196 10.1194 21.3665 12.5237C6.02912 25.6288 4.6276 49.3816 18.3784 64.1247C19.489 65.3401 20.7319 66.5555 21.155 66.8461L21.8954 67.3746L22.0012 66.1328C22.0805 64.9438 22.0276 64.8381 20.5732 63.2793C18.0082 60.5843 16.1571 57.9157 14.5176 54.5866C13.6714 52.8428 12.9574 51.2047 12.9574 50.9669C12.9574 50.7027 12.8516 50.4385 12.7194 50.3328C12.5607 50.2535 12.3756 49.6194 12.2699 48.9324C12.1905 48.2455 12.0054 47.5585 11.8996 47.4264C11.503 46.8451 11.0006 42.2478 11.027 39.3679C11.0799 35.5104 11.6088 32.5512 12.9838 28.1388C13.4863 26.5535 15.5753 22.5903 17.0562 20.3709C23.1118 11.3612 34.0066 5.70702 45.351 5.70702C50.9835 5.6806 56.2194 7.00167 61.3495 9.69665C77.2686 18.0458 83.8796 37.2013 76.5018 53.6354C75.7878 55.2736 73.6987 58.7348 72.5616 60.2408C71.0543 62.2224 66.3209 66.7669 64.4434 67.9823C60.7942 70.413 55.6641 72.5003 51.5653 73.2401C49.2118 73.6629 41.3051 73.6629 39.0045 73.2401C36.9154 72.8702 32.0233 71.4171 31.5738 71.0472C31.3887 70.8886 30.9127 70.9679 30.3309 71.2057C29.8021 71.4171 29.0352 71.602 28.6385 71.6284C28.0303 71.6284 28.189 71.787 29.617 72.4475C33.6629 74.3234 38.0525 75.4859 42.4422 75.803C49.8993 76.3579 57.0656 74.7461 63.3328 71.1264C69.6793 67.4538 75.3911 61.3505 78.1677 55.2736C80.3097 50.5706 81.7112 44.5729 81.7112 40.002C81.7112 31.8642 78.8553 23.6472 73.9103 17.4381C71.8477 14.8752 68.1191 11.414 65.5805 9.7495C60.7413 6.55251 56.6954 4.96722 50.7455 3.98963C48.7094 3.64615 41.7282 3.64615 39.7978 3.98963Z" fill="black"/>
<path d="M42.0455 6.36749C39.0838 6.57886 32.2614 8.24341 32.2614 8.74542C32.2614 9.00963 34.6677 9.53806 36.6775 9.69659L38.317 9.85511L38.8987 8.87753C39.1896 8.3491 39.5598 7.92635 39.6656 7.92635C39.7714 7.92635 39.9565 8.56047 40.0358 9.35311L40.2209 10.7799L41.9927 10.6213C44.1875 10.4628 44.637 10.2514 45.113 9.0889C45.3246 8.58689 45.6155 8.24341 45.7212 8.32267C45.8534 8.40194 46.2237 9.48522 46.5674 10.7534C47.1492 12.9728 47.7574 14.0033 48.4714 14.0033C48.7358 14.0033 48.7094 13.422 48.2863 11.3611C47.9161 9.5909 47.8367 8.63973 48.0218 8.45478C48.1805 8.29625 48.9209 10.7534 50.2167 15.932C52.6495 25.4966 55.9285 36.7257 57.4358 40.5039C58.7051 43.6745 58.3085 43.3839 60.8999 42.9083L61.7461 42.7498L61.2437 43.3046C60.7148 43.8859 60.7148 43.8859 61.561 45.6033C62.513 47.532 62.5923 48.034 62.0106 49.1437C61.6139 49.8835 61.6404 49.9892 62.3015 51.0461C63.2534 52.5785 66.3738 56.4625 67.5373 57.5722C68.6744 58.6554 68.7009 58.814 67.8282 59.0253C67.3522 59.1575 66.9291 59.6595 66.3474 60.8484C65.3689 62.7508 65.2367 62.8829 63.9674 62.8829C62.8039 62.8829 62.4072 63.3056 62.1164 64.9173C61.9841 65.6043 61.6139 66.4233 61.323 66.7404L60.7677 67.3481L59.8422 66.6347C58.5729 65.6571 56.2723 62.7508 54.0775 59.3952C52.8875 57.5722 52.0677 56.5417 51.7504 56.5417C51.5124 56.5417 49.7142 56.8852 47.7838 57.308C45.8799 57.7307 42.1513 58.5233 39.5334 59.0518C36.9155 59.6066 34.6677 60.135 34.562 60.2407C34.2446 60.5314 33.3455 70.8886 33.6364 71.232C33.7686 71.417 34.1389 71.6019 34.4562 71.6812C34.7735 71.7605 35.9899 72.0775 37.1534 72.3946C38.317 72.6852 40.644 73.0287 42.31 73.1344C51.0364 73.7156 57.4358 72.0247 64.7078 67.1896C69.7586 63.834 74.6771 57.5193 76.9513 51.4688C78.7495 46.6601 79.5164 39.817 78.7495 35.2725C77.586 28.2444 75.444 23.3829 71.2659 18.3628C66.4796 12.5765 60.1331 8.69257 52.5966 6.89592C51.4595 6.6317 45.6948 6.02401 45.0866 6.1297C44.9544 6.1297 43.5793 6.23538 42.0455 6.36749Z" fill="black"/>
<path d="M30.146 9.69664C28.1891 10.41 23.2177 14.0826 20.9964 16.4341C15.2052 22.6167 12.2964 29.0635 11.6353 37.0956C10.8949 46.211 13.8302 55.0093 19.9387 62.0374C20.2824 62.4338 20.8642 63.0943 21.2344 63.5435C21.6046 63.9662 21.9748 64.2833 22.0542 64.1776C22.1335 64.0983 22.4508 62.2752 22.7417 60.0823C23.4292 55.1943 23.6937 53.7411 25.7827 43.199C28.1627 31.2037 29.8022 21.8505 30.2517 17.7023C30.7013 13.6863 30.9128 9.51169 30.7013 9.53811C30.622 9.53811 30.3575 9.61737 30.146 9.69664Z" fill="black"/>
<path d="M39.9565 28.8522C39.5069 31.2301 39.0045 34.4535 38.8723 36.0652C38.7136 37.6505 38.2112 40.8475 37.7617 43.1197C37.2857 45.392 36.9683 47.3207 37.0477 47.4C37.365 47.7171 46.8054 45.9997 46.8054 45.6298C46.8054 45.4977 46.4088 44.4936 45.9063 43.3839C44.0553 39.1829 42.9711 35.1669 41.7547 28.2709C41.4373 26.4478 41.0936 24.8625 40.9878 24.7569C40.882 24.6247 40.406 26.4742 39.9565 28.8522Z" fill="black"/>
</g>
<defs>
<clipPath id="clip0">
<rect width="87" height="79" rx="39.5" fill="white"/>
</clipPath>
</defs>
</svg>
