<svg width="56" height="50" viewBox="0 0 56 50" fill="none" xmlns="http://www.w3.org/2000/svg">
<g clip-path="url(#clip0)">
<rect width="55.0633" height="50" rx="25" fill="white"/>
<path d="M0 25V50H27.5316H55.0633V25V-4.76837e-07H27.5316H0V25ZM30.8455 1.52174C36.3685 1.98997 41.6238 4.46488 45.6239 8.47826C51.9335 14.7659 54.126 24.097 51.2976 32.5418C48.2348 41.689 40.1008 48.0435 30.4438 48.8294C25.473 49.2308 20.4521 47.9933 15.8997 45.2341C14.996 44.6823 14.8119 44.6321 14.4604 44.7993C13.8244 45.0836 13.724 45.0334 13.724 44.3645C13.724 43.8127 13.5901 43.6288 12.1842 42.3244C4.43519 35.0836 2.54396 23.495 7.56493 14.0468C11.1968 7.17391 18.5106 2.25752 26.109 1.53846C28.3685 1.32107 28.586 1.32107 30.8455 1.52174Z" fill="black"/>
<path d="M25.1885 2.52508C22.3098 3.02675 21.4897 3.26086 19.1801 4.29765C17.2219 5.16722 15.3139 6.40468 13.5231 7.92641C3.81591 16.2207 2.92887 31.2542 11.6319 40.5853C12.3348 41.3545 13.1214 42.1237 13.3892 42.3077L13.8578 42.6421L13.9248 41.8562C13.975 41.1037 13.9415 41.0368 13.021 40.0502C11.3976 38.3445 10.226 36.6555 9.18834 34.5485C8.65277 33.4448 8.20089 32.408 8.20089 32.2575C8.20089 32.0903 8.13394 31.9231 8.05026 31.8562C7.94984 31.806 7.83268 31.4047 7.76573 30.9699C7.71552 30.5351 7.59837 30.1003 7.53142 30.0167C7.28037 29.6488 6.96238 26.7391 6.97912 24.9164C7.01259 22.4749 7.34732 20.602 8.21762 17.8094C8.53562 16.806 9.8578 14.2977 10.7951 12.893C14.6277 7.19063 21.5232 3.61203 28.7032 3.61203C32.2681 3.59531 35.5819 4.43143 38.8288 6.13712C48.9042 11.4214 53.0883 23.5451 48.4188 33.9465C47.967 34.9833 46.6448 37.1739 45.9251 38.1271C44.9711 39.3813 41.9753 42.2575 40.787 43.0268C38.4773 44.5652 35.2304 45.8863 32.6363 46.3545C31.1467 46.6221 26.1425 46.6221 24.6864 46.3545C23.3642 46.1204 20.2679 45.2007 19.9834 44.9666C19.8663 44.8662 19.565 44.9164 19.1968 45.0669C18.8621 45.2007 18.3767 45.3177 18.1257 45.3344C17.7407 45.3344 17.8411 45.4348 18.7449 45.8528C21.3056 47.0401 24.0839 47.7759 26.8622 47.9766C31.5819 48.3278 36.1175 47.3077 40.084 45.0167C44.1008 42.6923 47.7159 38.8294 49.4732 34.9833C50.8289 32.0067 51.7159 28.2107 51.7159 25.3177C51.7159 20.1672 49.9084 14.9665 46.7787 11.0368C45.4732 9.41471 43.1134 7.22407 41.5066 6.17056C38.4438 4.14715 35.8832 3.1438 32.1174 2.52508C30.8287 2.30768 26.4103 2.30768 25.1885 2.52508Z" fill="black"/>
<path d="M26.6111 4.03006C24.7366 4.16384 20.4186 5.21735 20.4186 5.53508C20.4186 5.7023 21.9416 6.03675 23.2136 6.13709L24.2513 6.23742L24.6195 5.61869C24.8036 5.28424 25.0379 5.01669 25.1048 5.01669C25.1718 5.01669 25.2889 5.41802 25.3391 5.9197L25.4563 6.82271L26.5776 6.72237C27.9668 6.62204 28.2513 6.48826 28.5525 5.75247C28.6864 5.43475 28.8705 5.21735 28.9375 5.26752C29.0212 5.31769 29.2555 6.00331 29.4731 6.80598C29.8413 8.21067 30.2262 8.86284 30.6781 8.86284C30.8455 8.86284 30.8287 8.49495 30.5609 7.1906C30.3266 6.0702 30.2764 5.46819 30.3936 5.35113C30.494 5.2508 30.9626 6.80598 31.7827 10.0836C33.3225 16.1371 35.3978 23.2441 36.3518 25.6354C37.1551 27.6421 36.9041 27.4582 38.5443 27.1572L39.0798 27.0568L38.7618 27.408C38.4271 27.7759 38.4271 27.7759 38.9627 28.8628C39.5652 30.0836 39.6154 30.4013 39.2472 31.1036C38.9962 31.5719 39.0129 31.6388 39.4313 32.3077C40.0338 33.2776 42.0087 35.7357 42.7451 36.4381C43.4648 37.1237 43.4816 37.224 42.9292 37.3578C42.628 37.4414 42.3602 37.7592 41.992 38.5117C41.3727 39.7157 41.2891 39.7993 40.4857 39.7993C39.7493 39.7993 39.4983 40.0669 39.3142 41.0869C39.2305 41.5217 38.9962 42.0401 38.8121 42.2408L38.4606 42.6254L37.8748 42.1739C37.0715 41.5551 35.6154 39.7157 34.2262 37.5919C33.4731 36.4381 32.9543 35.7859 32.7534 35.7859C32.6028 35.7859 31.4647 36.0033 30.2429 36.2709C29.0379 36.5384 26.6781 37.0401 25.0211 37.3745C23.3642 37.7257 21.9416 38.0602 21.8747 38.1271C21.6738 38.311 21.1048 44.8662 21.2889 45.0836C21.3726 45.2006 21.6069 45.3177 21.8077 45.3679C22.0086 45.418 22.7784 45.6187 23.5148 45.8194C24.2513 46.0033 25.7241 46.2207 26.7785 46.2876C32.3015 46.6555 36.3518 45.5852 40.9543 42.525C44.151 40.4013 47.264 36.4046 48.7034 32.5752C49.8414 29.5317 50.3268 25.2006 49.8414 22.3244C49.105 17.8762 47.7494 14.7993 45.105 11.622C42.0757 7.95983 38.0589 5.50164 33.289 4.36451C32.5693 4.19729 28.9207 3.81267 28.5358 3.87956C28.4521 3.87956 27.5818 3.94645 26.6111 4.03006Z" fill="black"/>
<path d="M19.0797 6.13714C17.8412 6.58865 14.6947 8.91306 13.2888 10.4014C9.62353 14.3144 7.78251 18.3947 7.3641 23.4783C6.89547 29.2475 8.75323 34.8161 12.6194 39.2642C12.837 39.5151 13.2052 39.9331 13.4395 40.2174C13.6738 40.485 13.9081 40.6856 13.9583 40.6187C14.0085 40.5686 14.2093 39.4147 14.3935 38.0268C14.8286 34.9331 14.996 34.0134 16.3182 27.3412C17.8244 19.7492 18.8621 13.8294 19.1466 11.204C19.4312 8.66222 19.565 6.02009 19.4312 6.03681C19.3809 6.03681 19.2136 6.08698 19.0797 6.13714Z" fill="black"/>
<path d="M25.289 18.2609C25.0045 19.7659 24.6865 21.806 24.6028 22.8261C24.5024 23.8294 24.1844 25.8529 23.8999 27.291C23.5986 28.7291 23.3978 29.9498 23.448 30C23.6488 30.2007 29.6238 29.1137 29.6238 28.8796C29.6238 28.796 29.3727 28.1606 29.0547 27.4582C27.8832 24.7993 27.197 22.2575 26.4271 17.893C26.2263 16.7391 26.0087 15.7358 25.9417 15.6689C25.8748 15.5853 25.5735 16.7559 25.289 18.2609Z" fill="black"/>
</g>
<defs>
<clipPath id="clip0">
<rect width="55.0633" height="50" rx="25" fill="white"/>
</clipPath>
</defs>
</svg>
