<svg width="363" height="361" viewBox="0 0 363 361" fill="none" xmlns="http://www.w3.org/2000/svg">
<rect x="64.8135" y="319.082" width="24.9283" height="17.4498" rx="1" fill="white"/>
<circle cx="178.861" cy="181.353" r="178.861" fill="white"/>
<path d="M154.034 1.28433C131.358 5.23616 124.898 7.08038 106.704 15.2475C91.2786 22.0974 76.2489 31.8452 62.1421 43.8325C-14.3249 109.17 -21.3124 227.593 47.2442 301.097C52.7815 307.157 58.9779 313.216 61.0874 314.665L62.8076 325.404L64.8136 331.546V334.039L65.3004 335.375L65.3062 311.109C65.7017 305.181 65.4381 304.654 58.1869 296.882C45.3984 283.446 36.1697 270.141 27.9956 253.544C23.7768 244.85 20.2171 236.682 20.2171 235.497C20.2171 234.18 19.6897 232.862 19.0305 232.335C18.2395 231.94 17.3166 228.779 16.7893 225.354C16.3937 221.929 15.4709 218.504 14.9435 217.845C12.9659 214.947 10.461 192.027 10.5928 177.668C10.8565 158.436 13.4933 143.682 20.3489 121.684C22.8539 113.78 33.2692 94.0209 40.6522 82.9558C70.8435 38.0365 125.161 9.84666 181.721 9.84666C209.802 9.71495 235.907 16.3013 261.484 29.7376C340.851 71.3637 373.811 166.867 337.028 248.801C333.468 256.969 323.053 274.225 317.384 281.733C309.869 291.613 286.269 314.27 276.909 320.33C258.715 332.449 233.138 342.855 212.703 346.544C200.969 348.651 161.549 348.651 150.079 346.544C139.664 344.699 115.273 337.454 113.032 335.61C112.109 334.82 109.736 335.215 106.836 336.401C104.199 337.454 67.278 335.243 65.3004 335.375C62.8076 336.029 96.1567 339.299 103.276 342.592C123.447 351.945 145.333 357.741 167.218 359.321C204.397 362.088 240.126 354.052 271.371 336.005C303.013 317.695 331.49 287.266 345.334 256.969C356.013 233.521 363 203.619 363 180.83C363 140.257 348.761 99.29 324.107 68.3339C313.824 55.5563 295.234 38.2999 282.578 30.0011C258.451 14.062 238.28 6.15826 208.616 1.28433C198.464 -0.428143 163.659 -0.428143 154.034 1.28433Z" fill="black"/>
<path d="M165.24 13.14C150.474 14.1938 116.459 22.4927 116.459 24.9955C116.459 26.3128 128.456 28.9474 138.476 29.7377L146.65 30.5281L149.551 25.6542C151.001 23.0196 152.847 20.9119 153.374 20.9119C153.901 20.9119 154.824 24.0734 155.22 28.0253L156.143 35.1386L164.976 34.3482C175.919 33.5578 178.16 32.504 180.533 26.708C181.588 24.2052 183.038 22.4927 183.565 22.8879C184.225 23.2831 186.07 28.6839 187.784 35.0069C190.685 46.072 193.717 51.2094 197.277 51.2094C198.595 51.2094 198.463 48.3114 196.354 38.0366C194.508 29.2108 194.112 24.4686 195.035 23.5465C195.826 22.7561 199.518 35.0069 205.978 60.8256C218.107 108.511 234.455 164.496 241.97 183.333C248.299 199.14 246.321 197.691 259.241 195.32L263.46 194.53L260.955 197.296C258.318 200.194 258.318 200.194 262.537 208.756C267.283 218.372 267.679 220.875 264.779 226.408C262.801 230.096 262.933 230.623 266.229 235.892C270.975 243.532 286.532 262.896 292.333 268.429C298.002 273.83 298.134 274.62 293.783 275.674C291.41 276.333 289.301 278.836 286.4 284.763C281.522 294.248 280.863 294.906 274.535 294.906C268.734 294.906 266.756 297.014 265.306 305.049C264.647 308.474 262.801 312.558 261.351 314.139L258.582 317.168L253.968 313.612C247.639 308.738 236.169 294.248 225.227 277.518C219.294 268.429 215.207 263.292 213.625 263.292C212.438 263.292 203.473 265.004 193.849 267.112C184.356 269.219 165.767 273.171 152.715 275.806C139.663 278.572 128.456 281.207 127.929 281.734C126.347 283.183 121.864 334.82 123.315 336.532C123.974 337.455 125.82 338.377 127.402 338.772C128.984 339.167 135.048 340.748 140.849 342.329C146.65 343.778 158.252 345.49 166.558 346.017C210.065 348.915 241.97 340.484 278.226 316.378C303.407 299.649 327.93 268.166 339.268 238C348.233 214.025 352.056 179.908 348.233 157.251C342.432 122.211 331.753 97.9729 310.922 72.9446C287.059 44.0961 255.418 24.7321 217.844 15.7746C212.175 14.4573 183.433 11.4275 180.401 11.9545C179.742 11.9545 172.886 12.4814 165.24 13.14Z" fill="black"/>
<path d="M105.912 29.7377C96.1563 33.2944 71.3705 51.6046 60.296 63.3284C31.4231 94.1527 16.9207 126.294 13.6247 166.34C9.93324 211.786 24.5674 255.651 55.0224 290.691C56.7363 292.667 59.6368 295.96 61.4825 298.2C63.3283 300.307 65.174 301.888 65.5695 301.361C65.9651 300.966 67.5471 291.877 68.9974 280.943C72.4252 256.574 73.7436 249.328 84.1589 196.769C96.0245 136.964 104.199 90.3326 106.44 69.6513C108.681 49.6286 109.736 28.8156 108.681 28.9473C108.286 28.9473 106.967 29.3425 105.912 29.7377Z" fill="black"/>
<path d="M154.827 125.24C152.585 137.096 150.08 153.167 149.421 161.202C148.63 169.106 146.125 185.045 143.884 196.374C141.511 207.702 139.929 217.318 140.324 217.714C141.906 219.294 188.973 210.732 188.973 208.888C188.973 208.229 186.995 203.223 184.49 197.691C175.262 176.746 169.856 156.723 163.792 122.342C162.21 113.253 160.496 105.349 159.968 104.822C159.441 104.164 157.068 113.385 154.827 125.24Z" fill="black"/>
</svg>
